<?xml version="1.0" encoding="utf-8"?>
<!-- Generator: Adobe Illustrator 27.0.1, SVG Export Plug-In . SVG Version: 6.00 Build 0)  -->
<svg version="1.1" id="Calque_1" xmlns="http://www.w3.org/2000/svg" xmlns:xlink="http://www.w3.org/1999/xlink" x="0px" y="0px"
	 width="50px" height="41.2px" viewBox="0 0 50 41.2" style="enable-background:new 0 0 50 41.2;" xml:space="preserve">
<style type="text/css">
	.st0{fill:#1E1E1C;}
</style>
<g id="dfe8044c-91b6-4966-9038-a63642c35301" transform="matrix(0.6414999074478166,0,0,0.6414999074478166,37.325639709553826,117.89613952995941)">
	<path class="st0" d="M-24-155.4L-24-155.4c-0.6-1.2-1.7-2-2.9-2.3H-27c-0.7-0.2-1.4-0.3-2.1-0.4c-1.9-0.3-3.7-0.9-5.3-2
		c-0.3-0.2-0.7-0.1-0.8,0.2c-0.2,0.3-0.1,0.6,0.2,0.8c0.5,0.3,1.1,0.6,1.6,0.9c0,0.1-0.1,0.2-0.1,0.3c-0.8,2.6,0.8,5.4,3.4,6.2
		c0.5,0.1,1,0.2,1.5,0.2c1.5,0,2.9-0.7,3.9-1.9c0.1,0.8,0,1.7-0.1,2.5c-0.1,0.3,0,0.7,0.3,0.8c0,0,0,0,0,0c0.1,0,0.1,0,0.2,0
		c0.3,0,0.5-0.2,0.6-0.4c0.3-1.1,0.3-2.2,0.2-3.4C-23.6-154.4-23.8-154.9-24-155.4z M-27.7-156.6c0,0.1,0,0.3,0,0.4
		c-0.2,0.6-0.8,0.9-1.3,0.7c-0.6-0.2-0.9-0.8-0.7-1.3c0,0,0-0.1,0.1-0.1l0.5,0.1C-28.7-156.8-28.2-156.7-27.7-156.6L-27.7-156.6z
		 M-26.9-153.1c-0.9,0.5-1.9,0.5-2.9,0.3c-2-0.6-3.1-2.7-2.6-4.7v-0.1c0.5,0.2,0.9,0.3,1.4,0.5v0c-0.4,1.2,0.3,2.5,1.5,2.9
		s2.5-0.3,2.9-1.5c0-0.1,0.1-0.3,0.1-0.4c0.5,0.2,0.9,0.6,1.2,1.1C-25.6-154.2-26.1-153.5-26.9-153.1L-26.9-153.1z M-4.7-157.8
		c0-0.1-0.1-0.2-0.1-0.3c0.6-0.3,1.1-0.6,1.6-0.9c0.3-0.2,0.3-0.6,0.1-0.9c-0.2-0.2-0.5-0.3-0.8-0.2c-1.6,1-3.4,1.7-5.3,2
		c-0.7,0.1-1.4,0.2-2.1,0.4h-0.1c-1.2,0.3-2.3,1.1-2.9,2.2v0c-0.3,0.5-0.4,1-0.4,1.6c-0.1,1.1-0.1,2.3,0.2,3.4
		c0.1,0.3,0.3,0.4,0.6,0.4c0.3,0,0.6-0.3,0.6-0.6c0-0.1,0-0.1,0-0.2c-0.2-0.8-0.2-1.6-0.2-2.5c0.9,1.2,2.3,1.9,3.9,1.9
		c0.5,0,1-0.1,1.5-0.2C-5.5-152.4-3.9-155.1-4.7-157.8C-4.7-157.8-4.7-157.8-4.7-157.8z M-9-156.8l0.5-0.1c0,0,0.1,0.1,0.1,0.1
		c0.2,0.6-0.2,1.2-0.7,1.3c-0.6,0.2-1.1-0.1-1.3-0.7c0-0.2-0.1-0.3,0-0.5C-10-156.7-9.5-156.8-9-156.8L-9-156.8z M-8.4-152.8
		c-1,0.3-2,0.2-2.9-0.3c-0.8-0.4-1.4-1.1-1.6-2c0.3-0.5,0.7-0.8,1.2-1.1c0,0.1,0,0.2,0.1,0.3c0.3,1,1.2,1.6,2.2,1.6
		c1.3,0,2.3-1.1,2.3-2.3c0-0.2,0-0.4-0.1-0.5v0c0.5-0.1,0.9-0.3,1.4-0.5v0.1C-5.3-155.5-6.5-153.4-8.4-152.8z"/>
	<path class="st0" d="M-22.1-156.3c-0.1-1.8-1.6-3-4.2-3.2c-1.4-0.2-2.7-0.7-3.8-1.4c-0.3-0.2-0.7-0.1-0.9,0.2s-0.1,0.7,0.2,0.9
		c1.3,0.9,2.9,1.4,4.4,1.6c1.1,0.1,3,0.5,3.1,2.1c0,0.3,0.3,0.6,0.6,0.6h0C-22.4-155.7-22.1-156-22.1-156.3z M-11.5-158.3
		c1.6-0.2,3.1-0.7,4.4-1.6c0.3-0.2,0.4-0.6,0.2-0.9c-0.2-0.3-0.6-0.4-0.9-0.2c-1.2,0.7-2.5,1.2-3.9,1.4c-2.6,0.2-4.1,1.4-4.2,3.2
		c0,0.3,0.2,0.6,0.6,0.7c0,0,0,0,0,0h0c0.3,0,0.6-0.3,0.6-0.6C-14.4-157.9-12.5-158.2-11.5-158.3z M-31.7-162.6
		c0.2,0.3,0.6,0.3,0.9,0.1c0.3-0.2,0.3-0.6,0.1-0.9c0,0,0,0,0,0l-2.6-3.2c-0.2-0.3-0.6-0.3-0.9-0.1s-0.3,0.6-0.1,0.9c0,0,0,0,0,0
		L-31.7-162.6z M-29-164.4c0.1,0.2,0.3,0.4,0.6,0.4c0.3,0,0.6-0.3,0.6-0.6c0-0.1,0-0.1,0-0.2l-1.2-3c-0.1-0.3-0.5-0.5-0.8-0.4
		c-0.3,0.1-0.5,0.5-0.4,0.8L-29-164.4z M-25.7-164.3c0.3,0,0.6-0.2,0.6-0.6l0.2-2.6c0-0.3-0.2-0.6-0.6-0.7c0,0,0,0,0,0
		c-0.3,0-0.6,0.2-0.7,0.5c0,0,0,0,0,0l-0.2,2.6C-26.3-164.6-26.1-164.3-25.7-164.3C-25.7-164.3-25.7-164.3-25.7-164.3z"/>
	<path class="st0" d="M18.1-143.1c-3.2-1-10.7-0.9-16.9-0.6c4.1-5.2,4.1-10.2,3.4-12.5c-0.6-1.8-1.4-6.2-0.3-7.9
		c0.2-0.4,0.6-0.6,1-0.6c1.4-0.2,1.7-1.7,1.9-2.9c0.1-0.4,0.2-0.9,0.3-1.3c0.2-0.4,0.6-0.8,1-1.1c1.2-0.9,2-2.1,2.6-3.5
		c1.3-3.2-0.4-4.8-0.5-4.9c-0.1-0.1-0.1-0.1-0.2-0.1h-0.1c-1.3-0.4-2.8-0.1-3.9,0.6c-0.6,0.3-1.2,0.6-2.3,1
		c-2.2,1.1-4.8,0.7-6.6-1.1c-3.7-3.5-6.3-4.6-16.5-4.6s-12.8,1-16.4,4.6c-1.7,1.8-4.4,2.2-6.6,1.1c-0.8-0.3-1.5-0.7-2.3-1
		c-1.2-0.7-2.6-0.9-3.9-0.6h-0.1c-0.1,0-0.2,0.1-0.2,0.1c-0.1,0.1-1.8,1.6-0.5,4.9c0.6,1.4,1.5,2.6,2.6,3.5c0.4,0.3,0.8,0.7,1,1.1
		c0.1,0.4,0.1,0.9,0.1,1.3c0.2,1.2,0.5,2.7,1.9,2.9c0.4,0,0.8,0.3,1,0.6c1.1,1.7,0.2,6.2-0.3,7.9c-0.7,2.4-0.7,7.4,3.4,12.5
		c-6.1-0.3-13.7-0.4-16.9,0.6c-0.3,0.1-0.5,0.5-0.4,0.8c0.1,0.3,0.5,0.5,0.8,0.4c3.4-1.1,12.3-0.8,17.4-0.5h0.2l0.5,0.6
		c-6.3,0.1-10.6,0.5-12.7,1.3c-0.3,0.1-0.5,0.5-0.4,0.8c0.1,0.3,0.5,0.5,0.8,0.4c0,0,0,0,0,0c2.1-0.8,6.8-1.2,13.6-1.2
		c0.3,0.2,0.6,0.5,0.9,0.7c-5.3,0.3-14,1-17.2,2.5c-0.3,0.2-0.4,0.5-0.3,0.8c0.1,0.3,0.5,0.4,0.7,0.3c3.4-1.5,13.3-2.2,18.2-2.4
		l0.8,0.6l0.1,0.1c-5.2,0.5-8.7,1.1-10.5,1.9c-0.3,0.2-0.4,0.5-0.3,0.8c0.1,0.3,0.5,0.4,0.7,0.3c1.7-0.7,5.3-1.4,10.4-1.9
		c0,1.5,0.2,3,0.6,4.5c1.3,3.5,3.2,4.4,5.3,4.6c0.3,0.6,0.7,1.1,1.2,1.5c-1.1,1-2.1,2.3-2.8,3.7c-0.1,0.3,0,0.7,0.4,0.8
		s0.7,0,0.8-0.4c0.2-0.6,0.9-1.6,2.7-3.4c0.5,0.3,1.1,0.5,1.6,0.6c-0.4,0.9-0.7,1.8-0.8,2.8c0,0.3,0.2,0.6,0.6,0.6c0,0,0,0,0,0
		c0.3,0,0.6-0.3,0.6-0.6c0.1-0.9,0.4-1.8,0.7-2.6c1.8,0.3,3.6,0.3,5.4,0c0.4,0.8,0.6,1.7,0.7,2.6c0,0.3,0.3,0.6,0.6,0.6
		c0.3,0,0.6-0.3,0.6-0.6c0,0,0,0,0,0c-0.1-1-0.3-1.9-0.7-2.8c0.6-0.2,1.1-0.4,1.6-0.6c1.8,1.8,2.5,2.9,2.7,3.4
		c0.1,0.3,0.5,0.5,0.8,0.4s0.5-0.5,0.4-0.8c-0.7-1.4-1.6-2.6-2.8-3.7c0.5-0.4,0.9-0.9,1.2-1.5c2.1-0.2,4-1,5.3-4.6
		c0.4-1.5,0.6-3,0.5-4.5c5.1,0.5,8.8,1.1,10.4,1.9c0.3,0.2,0.7,0,0.8-0.3c0.2-0.3,0-0.7-0.3-0.8c0,0-0.1,0-0.1,0
		c-1.8-0.8-5.4-1.5-10.7-2l0.7-0.5l0.3-0.2c4.9,0.2,14.9,0.9,18.4,2.5c0.3,0.1,0.7-0.1,0.8-0.4c0.1-0.3,0-0.6-0.3-0.7
		c-3.3-1.5-12-2.2-17.3-2.5c0.3-0.2,0.6-0.5,0.9-0.7c6.8,0,11.5,0.5,13.6,1.2c0.3,0.1,0.7-0.1,0.8-0.4c0.1-0.3-0.1-0.6-0.4-0.8
		c-2.1-0.8-6.4-1.2-12.7-1.3l0.5-0.6h0.2c5-0.3,14-0.5,17.4,0.5c0.3,0.1,0.7-0.1,0.8-0.4C18.6-142.6,18.4-143,18.1-143.1z
		 M-16.4-127.6c-0.2-0.3-0.5-0.4-0.8-0.2c-0.3,0.2-0.4,0.5-0.2,0.8c0.1,0.2,0.3,0.6,0.5,1c-1.4,0.2-2.9,0.2-4.3,0
		c0.3-0.6,0.5-1,0.5-1c0.2-0.3,0.1-0.7-0.2-0.8c-0.3-0.2-0.7-0.1-0.8,0.2c0,0-0.3,0.6-0.7,1.4c-1.1-0.2-2.1-0.8-2.9-1.6h2
		c1.8,0,3.5-1,4.3-2.6c0.9,1.6,2.5,2.6,4.3,2.6h2c-0.8,0.8-1.8,1.4-2.9,1.6C-16.1-127-16.4-127.5-16.4-127.6L-16.4-127.6z
		 M-2.4-141.8L-2.4-141.8c-0.8,0.6-1.5,1.2-2.3,1.7h-0.6c0.1-1.4,0.4-2.7,0.9-3c0.3-0.2,0.3-0.6,0.1-0.9c-0.2-0.3-0.6-0.3-0.9-0.1
		c-0.8,0.7-1.2,2.2-1.3,4H-7c-0.3,0-0.6,0.2-0.6,0.6c0,0,0,0,0,0c0,0.3,0.3,0.6,0.6,0.6c0,0,0,0,0,0h0.5v0.6h-0.1
		c-0.3,0-0.6,0.2-0.7,0.6c0,0.3,0.2,0.6,0.6,0.7h0.2c0,1.4-0.1,2.8-0.5,4.1c-1.2,3.1-2.5,3.7-4.6,3.8h-3.1c-2,0-3.7-1.6-3.7-3.7
		c0.3-0.3,0.6-0.5,1-0.7c0.8-0.5,2-1.2,1.6-2.3c-0.2-0.4,0-0.5,1.4-1.5l0.5-0.4c0.6-0.3,1-0.9,1.1-1.6c0-0.5-0.3-1-0.8-1.3
		c-0.3-0.2-0.6-0.1-0.8,0.2c-0.2,0.3-0.1,0.6,0.2,0.8c0.1,0,0.2,0.2,0.2,0.3s-0.1,0.3-0.5,0.6l-0.5,0.4c-1.3,0.9-2.4,1.6-1.8,2.9
		c-0.1,0.2-0.7,0.6-1.1,0.8c-0.3,0.2-0.6,0.4-0.9,0.6c-0.3-0.2-0.6-0.4-0.9-0.6c-0.4-0.2-0.8-0.5-1.1-0.8c0.6-1.4-0.5-2.1-1.8-3
		l-0.5-0.4c-0.4-0.3-0.5-0.5-0.5-0.6s0.1-0.3,0.2-0.3c0.3-0.2,0.3-0.6,0.1-0.9c-0.2-0.3-0.5-0.3-0.8-0.2c-0.5,0.3-0.7,0.8-0.8,1.3
		c0.1,0.7,0.5,1.3,1.1,1.6l0.5,0.4c1.4,1,1.5,1.1,1.4,1.5c-0.4,1.1,0.7,1.8,1.6,2.3c0.3,0.2,0.6,0.4,1,0.6c0,2.1-1.7,3.7-3.7,3.7
		h-1.3c-3.1,0.1-4.9,0.1-6.4-3.8c-0.3-1.4-0.5-2.8-0.5-4.1h0.2c0.3,0,0.6-0.3,0.6-0.7c0-0.3-0.3-0.6-0.7-0.6h-0.1v-0.6h0.5
		c0.3,0,0.6-0.3,0.6-0.6c0-0.3-0.3-0.6-0.6-0.6h-0.5c-0.2-1.8-0.5-3.3-1.3-4c-0.3-0.2-0.7-0.2-0.9,0.1c-0.2,0.3-0.2,0.7,0.1,0.9
		c0.5,0.4,0.7,1.6,0.9,3h-0.8c-0.7-0.5-1.4-1.1-2-1.6c0,0-0.1-0.1-0.1-0.1c-0.2-0.2-0.4-0.4-0.6-0.6l1.9,0.1h0
		c0.3,0,0.6-0.3,0.6-0.6c0-0.3-0.3-0.6-0.6-0.6c0,0-1.3-0.1-3.3-0.2c-4.5-5.1-4.6-10-3.9-12.2c0-0.1,1.9-6.3,0.2-9
		c-0.4-0.6-1.1-1.1-1.8-1.2c-0.5-0.1-0.7-0.8-0.8-1.9c-0.1-0.5-0.2-1-0.4-1.5c-0.3-0.6-0.8-1.2-1.3-1.6c-1-0.8-1.8-1.8-2.3-3
		c-0.8-1.9-0.2-3,0.1-3.3c0.6-0.1,1.2,0.1,1.7,0.4c0.1,0,6.2,4.5,8.9,4.5h0.3c-2.5,1.8-3.9,4-3.9,6.2c0,0.3,0.3,0.6,0.6,0.6
		c0.3,0,0.6-0.3,0.6-0.6c0-2.3,2.1-4.8,5.4-6.5c1.3-0.2,2.5-0.6,3.7-1.2c0.3-0.2,0.4-0.5,0.3-0.8c-0.2-0.3-0.5-0.4-0.8-0.3
		c0,0,0,0,0,0c-1.9,0.9-4.1,1.4-6.2,1.3c-1,0-3-1-4.8-2.1c2.6,1.2,5.6,0.6,7.6-1.4c3.3-3.1,5.3-4.2,15.6-4.2s12.3,1.1,15.6,4.2
		c1.2,1.3,3,2,4.7,2c1,0,1.9-0.2,2.8-0.6c-1.8,1.1-3.8,2.1-4.8,2.1C-2.9-173.6-5-174-7-175c-0.3-0.2-0.7,0-0.8,0.3
		c-0.2,0.3-0.1,0.7,0.2,0.8c1.2,0.6,2.4,1,3.7,1.2c3.3,1.6,5.4,4.1,5.4,6.5c0,0.3,0.3,0.6,0.6,0.6s0.6-0.3,0.6-0.6
		c0-2.2-1.5-4.5-3.9-6.2h0.4c2.7,0,8.8-4.5,8.9-4.5c0.5-0.3,1.1-0.5,1.7-0.4c0.3,0.4,0.9,1.4,0.1,3.3c-0.5,1.2-1.3,2.2-2.3,3
		c-0.6,0.4-1,1-1.3,1.6c-0.2,0.5-0.3,1-0.4,1.5c-0.2,1.1-0.3,1.8-0.8,1.9c-0.8,0.1-1.4,0.5-1.8,1.2c-1.7,2.7,0.2,8.9,0.2,9
		c0.7,2.2,0.6,7.2-3.9,12.2c-2,0.1-3.3,0.2-3.3,0.2c-0.3,0-0.6,0.3-0.6,0.6c0,0.3,0.3,0.6,0.6,0.6h0l1.9-0.1
		C-1.9-142.1-2.1-141.9-2.4-141.8z"/>
	<path class="st0" d="M-7-162.4c0.2,0,0.4-0.1,0.5-0.2l2.6-3.2c0.2-0.3,0.2-0.6-0.1-0.9s-0.6-0.2-0.9,0.1c0,0,0,0,0,0l-2.6,3.2
		c-0.2,0.3-0.2,0.7,0.1,0.9C-7.3-162.4-7.1-162.4-7-162.4L-7-162.4z M-10-164c0.1,0,0.1,0,0.2,0c0.3,0,0.5-0.2,0.6-0.4l1.2-3
		c0.1-0.3,0-0.7-0.4-0.8c-0.3-0.1-0.7,0-0.8,0.4l-1.2,3C-10.5-164.6-10.4-164.2-10-164C-10.1-164-10-164-10-164z M-12.5-164.3
		c0.3,0,0.6-0.3,0.6-0.7c0,0,0,0,0,0l-0.2-2.6c0-0.3-0.3-0.6-0.7-0.6c-0.3,0-0.6,0.3-0.6,0.7l0.2,2.6
		C-13.2-164.5-12.9-164.3-12.5-164.3C-12.5-164.3-12.5-164.3-12.5-164.3z"/>
	<circle class="st0" cx="-28.9" cy="-135.8" r="0.9"/>
	<circle class="st0" cx="-28.6" cy="-132.9" r="0.9"/>
	<circle class="st0" cx="-26.3" cy="-131" r="0.9"/>
	<circle class="st0" cx="-25.6" cy="-134" r="0.9"/>
	<circle class="st0" cx="-23.2" cy="-132.5" r="0.9"/>
	<circle class="st0" cx="-9.4" cy="-135.8" r="0.9"/>
	<circle class="st0" cx="-9.7" cy="-132.9" r="0.9"/>
	<circle class="st0" cx="-11.9" cy="-131" r="0.9"/>
	<circle class="st0" cx="-12.7" cy="-134" r="0.9"/>
	<circle class="st0" cx="-15.1" cy="-132.5" r="0.9"/>
	<path class="st0" d="M-16.2-150.1c-0.3,0-0.6,0.2-0.7,0.6c0,0,0,0,0,0c-0.2,1.7-1,3.2-2.3,4.4c-1.2-1.2-2-2.7-2.2-4.4
		c0-0.3-0.3-0.6-0.7-0.6c-0.3,0-0.6,0.3-0.6,0.7c0.3,2.2,1.4,4.2,3.1,5.6c0.1,0.1,0.2,0.1,0.4,0.1c0.1,0,0.3-0.1,0.4-0.1
		c1.7-1.4,2.8-3.4,3.1-5.6C-15.7-149.7-15.9-150-16.2-150.1z M-27-147.9c-0.3-0.2-0.7-0.1-0.8,0.2c-0.2,0.3-0.4,0.6-0.6,0.9
		c-1.1,1.6-2.8,4-0.4,6.6c0.3,0.2,0.6,0.2,0.9-0.1c0.2-0.2,0.2-0.5,0-0.7c-1.6-1.7-0.8-3.1,0.5-5c0.2-0.4,0.5-0.7,0.6-1
		C-26.6-147.3-26.7-147.7-27-147.9C-27-147.8-27-147.9-27-147.9z M-10.3-147.6c-0.2-0.3-0.5-0.4-0.8-0.2c-0.3,0.2-0.4,0.5-0.2,0.8
		c0.2,0.3,0.4,0.6,0.6,1c1.3,1.9,2.1,3.3,0.5,5c-0.3,0.2-0.3,0.6-0.1,0.9c0.2,0.3,0.6,0.3,0.9,0.1c0,0,0.1-0.1,0.1-0.1
		c2.3-2.5,0.7-4.9-0.4-6.6C-9.9-147.1-10.2-147.4-10.3-147.6z M-25.8-139.8c0.1-0.3-0.1-0.7-0.4-0.8c-0.3-0.1-0.7,0.1-0.8,0.4
		c-0.5,1.5,0.2,3.2,1.6,4c0.3,0.2,0.7,0.1,0.8-0.2s0.1-0.7-0.2-0.8C-25.6-137.8-26.1-138.9-25.8-139.8z M-12.9-136.3
		c1.4-0.8,2-2.4,1.6-4c-0.1-0.3-0.5-0.5-0.8-0.4c-0.3,0.1-0.5,0.5-0.4,0.8l0,0c0.3,1-0.1,2-1,2.5c-0.3,0.2-0.4,0.5-0.2,0.8
		C-13.5-136.2-13.1-136.1-12.9-136.3L-12.9-136.3z M-16.7-139.7c-1.1,1.3-3.1,1.4-4.4,0.3c-0.1-0.1-0.2-0.2-0.3-0.3
		c-0.2-0.3-0.6-0.3-0.9-0.1c-0.3,0.2-0.3,0.6-0.1,0.9c1.6,1.8,4.3,2,6.2,0.5c0.2-0.1,0.3-0.3,0.5-0.5c0.2-0.3,0.2-0.7-0.1-0.9
		C-16.1-140-16.5-140-16.7-139.7L-16.7-139.7L-16.7-139.7z M-35.1-151.7c-0.3-0.2-0.7-0.1-0.9,0.2c-0.2,0.3-0.1,0.7,0.2,0.9
		c0,0,0.1,0,0.1,0c2.2,1.2,3.1,2.9,3.1,3.6c0,0.3,0.3,0.6,0.6,0.6c0.3,0,0.6-0.3,0.6-0.6C-31.4-148.3-32.8-150.4-35.1-151.7z
		 M-2.2-151.5c-0.2-0.3-0.5-0.4-0.8-0.2c-2.4,1.3-3.8,3.4-3.8,4.7c0,0.3,0.3,0.6,0.6,0.6s0.6-0.3,0.6-0.6c0-0.6,0.9-2.4,3.1-3.6
		C-2.2-150.8-2-151.2-2.2-151.5C-2.2-151.5-2.2-151.5-2.2-151.5z"/>
</g>
</svg>
